<?xml version="1.0" standalone="no"?>
<!DOCTYPE svg PUBLIC "-//W3C//DTD SVG 20010904//EN"
 "http://www.w3.org/TR/2001/REC-SVG-20010904/DTD/svg10.dtd">
<svg version="1.0" xmlns="http://www.w3.org/2000/svg"
 width="298.000000pt" height="83.000000pt" viewBox="0 0 298.000000 83.000000"
 preserveAspectRatio="xMidYMid meet">

<g transform="translate(0.000000,83.000000) scale(0.100000,-0.100000)"
fill="#000000" stroke="none">
<path d="M2170 803 c-1 -88 -70 -319 -121 -402 l-20 -34 -78 139 -77 139 -62
3 c-34 2 -62 1 -62 -1 0 -4 62 -118 177 -325 l34 -63 -78 -81 c-43 -44 -109
-102 -147 -129 l-69 -49 84 0 85 0 35 38 c20 20 53 60 74 87 22 28 42 54 46
59 4 4 30 -35 59 -88 l52 -96 64 0 c35 0 64 2 64 5 0 3 -37 72 -83 153 l-83
148 29 69 c43 101 76 244 84 356 3 55 3 99 0 99 -4 0 -7 -12 -7 -27z"/>
<path d="M292 639 c-49 -9 -81 -33 -57 -43 8 -3 15 -2 15 3 0 9 3 10 98 17 82
7 139 -9 195 -54 l32 -26 -24 27 c-54 59 -171 94 -259 76z"/>
<path d="M865 325 l0 -325 170 2 170 3 0 24 c0 23 0 23 -112 22 l-113 -2 0
130 0 131 116 0 c112 0 115 1 112 21 -3 21 -8 22 -115 20 l-113 -2 0 125 0
126 116 0 c114 0 115 0 112 23 -3 22 -5 22 -173 25 l-170 2 0 -325z"/>
<path d="M1340 325 l0 -325 58 0 57 0 0 152 0 153 95 1 c88 2 95 3 98 22 3 20
-2 21 -95 24 l-98 3 -3 123 -3 122 116 0 115 0 0 25 0 25 -170 0 -170 0 0
-325z"/>
<path d="M99 560 c-72 -72 -94 -125 -94 -230 0 -66 5 -96 22 -132 30 -66 96
-133 162 -165 47 -23 70 -27 141 -28 72 0 94 4 141 26 103 49 174 136 193 239
5 26 1 20 -18 -24 -32 -76 -93 -137 -169 -171 -53 -24 -69 -27 -141 -23 -127
7 -211 60 -266 170 -55 112 -37 244 47 338 58 65 47 65 -18 0z"/>
<path d="M397 594 c-4 -4 -4 -11 -1 -15 8 -14 31 -10 38 6 5 15 -24 22 -37 9z"/>
<path d="M290 555 c0 -8 7 -15 15 -15 8 0 15 4 15 9 0 5 -7 11 -15 15 -9 3
-15 0 -15 -9z"/>
<path d="M410 535 c0 -9 9 -15 25 -15 16 0 25 6 25 15 0 9 -9 15 -25 15 -16 0
-25 -6 -25 -15z"/>
<path d="M510 486 c0 -17 7 -25 25 -28 27 -6 31 3 15 33 -15 27 -40 24 -40 -5z"/>
<path d="M384 435 c-10 -25 4 -45 31 -45 25 0 31 13 19 44 -8 20 -43 21 -50 1z"/>
<path d="M517 408 c-2 -8 11 -17 32 -23 31 -9 36 -15 39 -43 3 -28 7 -32 33
-32 25 0 29 4 29 29 0 29 -14 41 -51 41 -10 0 -19 6 -19 14 0 7 -10 16 -22 20
-32 8 -36 8 -41 -6z"/>
<path d="M2348 165 c-36 -20 -54 -75 -36 -112 25 -53 113 -72 142 -31 22 31
13 34 -23 7 l-31 -23 -28 21 c-20 15 -28 30 -30 59 -4 51 16 77 57 77 19 0 37
-7 46 -19 15 -18 15 -18 13 6 -3 22 -8 25 -43 27 -22 2 -52 -4 -67 -12z"/>
<path d="M2509 151 c-20 -20 -29 -39 -29 -61 0 -42 47 -90 89 -90 41 0 80 36
88 82 5 32 1 41 -25 68 -41 40 -83 41 -123 1z m107 -28 c35 -83 -52 -151 -93
-72 -19 37 -15 67 11 94 31 31 64 23 82 -22z"/>
<path d="M2683 162 c23 -25 24 -130 2 -138 -8 -4 -12 -10 -9 -15 7 -12 64 -11
64 1 0 6 -4 10 -10 10 -5 0 -10 14 -10 30 0 38 13 38 40 0 23 -32 58 -56 68
-46 3 4 -1 12 -10 19 -9 6 -23 24 -32 38 -15 23 -15 28 -1 39 8 7 15 23 15 36
0 29 -32 44 -92 44 -39 0 -40 -1 -25 -18z m82 -37 c0 -23 -5 -31 -22 -33 -20
-3 -23 1 -23 33 0 32 3 36 23 33 17 -2 22 -10 22 -33z"/>
<path d="M2850 170 c0 -5 5 -10 10 -10 6 0 10 -30 10 -70 0 -40 -4 -70 -10
-70 -5 0 -10 -4 -10 -10 0 -5 16 -10 35 -10 19 0 35 5 35 10 0 6 -4 10 -10 10
-5 0 -10 10 -10 23 0 17 8 25 32 32 23 7 36 19 43 39 8 24 6 31 -14 47 -25 20
-111 27 -111 9z m95 -45 c0 -23 -5 -31 -22 -33 -20 -3 -23 1 -23 33 0 32 3 36
23 33 17 -2 22 -10 22 -33z"/>
</g>
</svg>
