<svg width="97" height="62" viewBox="0 0 97 62" fill="none" xmlns="http://www.w3.org/2000/svg">
<path d="M44.5096 2.18701H48.6087V23.8743C48.6087 26.7173 47.7381 28.9771 46.0332 30.6538C44.3283 32.3305 42.0792 33.1688 39.3586 33.1688C36.5654 33.1688 34.3526 32.4398 32.6839 30.9454C31.0152 29.451 30.2535 27.3005 30.326 24.4574L30.3623 24.3481H34.3163C34.3163 26.2435 34.7516 27.665 35.6222 28.5762C36.4928 29.4874 37.7262 29.9613 39.3586 29.9613C40.8821 29.9613 42.1155 29.4145 43.0586 28.321C44.0018 27.2276 44.5096 25.7332 44.5096 23.9107V2.18701Z" fill="#F8974B"/>
<path d="M53.3242 21.1408C53.3242 17.7875 54.2311 15.0174 56.0449 12.8304C57.8586 10.6435 60.3253 9.58643 63.4087 9.58643C66.5284 9.58643 68.9951 10.6799 70.8452 12.8304C72.6589 14.9809 73.5658 17.751 73.5658 21.1408V21.6146C73.5658 25.0044 72.6589 27.7746 70.8452 29.9251C69.0314 32.0756 66.5647 33.169 63.445 33.169C60.3253 33.169 57.8586 32.0756 56.0449 29.9251C54.2311 27.7746 53.3242 25.0044 53.3242 21.6146V21.1408ZM57.4233 21.6146C57.4233 24.0203 57.9312 25.9885 58.9469 27.5559C59.9626 29.1232 61.4499 29.8886 63.445 29.8886C65.4039 29.8886 66.8912 29.1232 67.9069 27.5559C68.9226 25.9885 69.4304 24.0203 69.4304 21.6146V21.1408C69.4304 18.7716 68.9226 16.8034 67.9069 15.1996C66.8912 13.6323 65.3676 12.8304 63.4087 12.8304C61.4499 12.8304 59.9626 13.6323 58.9469 15.1996C57.9312 16.7669 57.4233 18.7716 57.4233 21.1408V21.6146Z" fill="#F8974B"/>
<path d="M96.9996 22.234C96.9996 25.5144 96.2015 28.1387 94.6417 30.1434C93.0819 32.1481 90.9054 33.1687 88.1847 33.1687C86.6974 33.1687 85.3915 32.8771 84.267 32.2939C83.1787 31.7108 82.2356 30.836 81.5101 29.6696L80.8571 32.7678H77.7012V0H81.8003V12.7208C82.5258 11.7002 83.3964 10.9347 84.4484 10.4245C85.5003 9.87772 86.7337 9.62257 88.1484 9.62257C90.9416 9.62257 93.1181 10.7525 94.6417 12.9759C96.2015 15.1993 96.9633 18.1517 96.9633 21.7966V22.234H96.9996ZM92.9005 21.7966C92.9005 19.2087 92.4289 17.0582 91.4858 15.418C90.5426 13.7778 89.0916 12.9394 87.1327 12.9394C85.8631 12.9394 84.8111 13.2675 83.9405 13.8871C83.0699 14.5068 82.3807 15.3451 81.8728 16.4021V26.2434C82.417 27.3733 83.1062 28.2481 83.9405 28.8677C84.8111 29.4874 85.8631 29.8154 87.169 29.8154C89.0916 29.8154 90.5426 29.1229 91.4858 27.7378C92.4289 26.3527 92.9005 24.5303 92.9005 22.234V21.7966Z" fill="#F8974B"/>
<path d="M37.5088 39.5107V43.7753H41.1726V45.2697H37.5088V56.1316C37.5088 57.225 37.6901 57.9905 38.0892 58.4643C38.4882 58.9381 38.996 59.1568 39.649 59.1568C39.8666 59.1568 40.0843 59.1568 40.3019 59.1204C40.5196 59.0839 40.7735 59.0475 41.0637 58.9746L41.3539 60.3597C41.1 60.469 40.8098 60.5784 40.447 60.6512C40.0843 60.7241 39.7215 60.7606 39.3588 60.7606C38.198 60.7606 37.2911 60.3961 36.6381 59.6671C35.9852 58.9381 35.6587 57.7718 35.6587 56.1316V45.2697H32.793V43.7753H35.6587V39.5107H37.5088Z" fill="#606161"/>
<path d="M48.0286 39.0005H46.2148V36.4126H48.0286V39.0005ZM48.0286 60.5055H46.2148V43.8118H48.0286V60.5055Z" fill="#606161"/>
<path d="M55.8638 43.8119L56.0452 46.5456C56.5893 45.5615 57.2786 44.8325 58.1854 44.2858C59.0561 43.739 60.108 43.4839 61.3414 43.4839C62.611 43.4839 63.663 43.7755 64.5336 44.3951C65.3679 45.0148 65.9846 45.926 66.3474 47.2017C66.8552 46.0353 67.5807 45.1241 68.4876 44.468C69.4308 43.8119 70.519 43.4839 71.8249 43.4839C73.6024 43.4839 74.9809 44.0671 75.924 45.2699C76.9035 46.4363 77.3751 48.2952 77.3751 50.7737V60.5056H75.525V50.7373C75.525 48.6961 75.1623 47.2381 74.4368 46.3634C73.7113 45.525 72.6955 45.0876 71.4259 45.0876C70.0112 45.0876 68.9229 45.525 68.1611 46.3634C67.3994 47.2381 66.8915 48.3316 66.7101 49.6802C66.7101 49.7896 66.7101 49.8989 66.7101 50.0083C66.7101 50.1176 66.7101 50.2634 66.7101 50.4457V60.5056H64.8601V50.7373C64.8601 48.7326 64.4973 47.2746 63.7718 46.3998C63.0463 45.525 62.0306 45.0876 60.761 45.0876C59.4551 45.0876 58.4394 45.4157 57.6776 46.0718C56.9158 46.7279 56.3717 47.6026 56.0815 48.7326V60.5056H54.2314V43.8119H55.8638Z" fill="#606161"/>
<path d="M89.128 60.7974C86.9877 60.7974 85.2465 60.032 83.9043 58.5011C82.5621 56.9702 81.9092 55.002 81.9092 52.6328V51.7945C81.9092 49.3888 82.5984 47.4206 83.9406 45.8533C85.2828 44.2859 86.9877 43.5205 88.9829 43.5205C91.0143 43.5205 92.5741 44.1766 93.6624 45.4888C94.7506 46.8009 95.331 48.5505 95.331 50.7374V52.159H83.7592V52.6692C83.7592 54.5646 84.2308 56.1684 85.2102 57.4076C86.1534 58.6469 87.4956 59.303 89.1642 59.303C90.1799 59.303 91.1231 59.1208 91.9574 58.7927C92.7918 58.4647 93.5173 57.9908 94.0614 57.4441L94.8595 58.7198C94.279 59.3394 93.5173 59.8497 92.5741 60.2507C91.5584 60.6152 90.4339 60.7974 89.128 60.7974ZM88.9466 45.0514C87.5318 45.0514 86.371 45.5617 85.4642 46.5822C84.5573 47.6028 84.0131 48.8785 83.868 50.4458L83.9043 50.5552H93.4084V50.1543C93.4084 48.6598 93.0094 47.457 92.2476 46.4729C91.4859 45.5252 90.3976 45.0514 88.9466 45.0514Z" fill="#606161"/>
<path d="M13.6027 61.9999C6.56533 61.9999 0.870117 56.2409 0.870117 49.2062C0.870117 42.1351 6.60161 36.4126 13.6027 36.4126C20.6401 36.4126 26.3353 42.1716 26.3353 49.2062C26.3716 56.2409 20.6401 61.9999 13.6027 61.9999ZM13.6027 38.0893C7.50849 38.0893 2.57505 43.0828 2.57505 49.1698C2.57505 55.2933 7.54476 60.2503 13.6027 60.2503C19.697 60.2503 24.6304 55.2568 24.6304 49.1698C24.6667 43.0828 19.697 38.0893 13.6027 38.0893Z" fill="#F8974B"/>
<path d="M18.1373 55.6943L12.7686 50.2269L12.8048 43.9941H14.5098L14.4735 49.498L19.3706 54.4915L18.1373 55.6943Z" fill="#F8974B"/>
<path d="M0 33.2051C0.145101 31.3097 0.326477 28.4667 0.507853 24.676C0.68923 20.8853 0.76178 18.0422 0.76178 16.1104C1.70494 16.1469 2.46672 16.1469 3.0834 16.1469C3.77263 16.1469 4.49813 16.1469 5.29619 16.1104L5.15108 18.8077C5.51384 18.2974 5.84031 17.86 6.13052 17.5319C6.42072 17.2039 6.81975 16.9123 7.29132 16.6207C7.7629 16.3291 8.30703 16.1104 8.92371 15.9646C9.54039 15.8188 10.1933 15.7095 10.8826 15.7095C11.3904 15.7095 11.862 15.7459 12.3336 15.8553C12.8052 15.9646 13.2405 16.074 13.6032 16.2562C14.0022 16.4385 14.3287 16.6207 14.5826 16.8394C14.8729 17.0581 15.0905 17.3132 15.2719 17.6048C15.4533 17.8964 15.6709 18.2974 15.8886 18.8077C16.1425 18.4067 16.3601 18.0787 16.5778 17.8235C16.7954 17.5684 17.0494 17.2768 17.4121 17.0216C17.7749 16.73 18.1376 16.5114 18.5729 16.3291C19.0082 16.1469 19.4798 16.0011 19.9877 15.8917C20.5318 15.7824 21.0759 15.7459 21.62 15.7459C22.5995 15.7459 23.5064 15.8917 24.377 16.2198C25.2476 16.5478 25.9005 17.0581 26.4084 17.7506C26.9162 18.4432 27.1339 19.2815 27.1339 20.3021C27.1339 20.8488 27.0976 21.6142 27.0251 22.6713C26.9525 23.7283 26.8437 25.4049 26.7349 27.7741C26.626 30.1433 26.5535 31.9658 26.5535 33.2415C25.7554 33.1686 25.0299 33.1686 24.4132 33.1686C23.6877 33.1686 22.8171 33.1686 21.8014 33.2051C21.9102 31.7471 21.9828 30.2527 22.0916 28.6489L22.3093 24.7853C22.3818 23.8012 22.3818 22.9993 22.3818 22.3068C22.3818 21.5049 22.273 20.8853 22.0191 20.4843C21.7651 20.0834 21.4387 19.7918 21.0759 19.6095C20.7132 19.4273 20.2416 19.3544 19.77 19.3544C19.2622 19.3544 18.8269 19.4637 18.3915 19.646C17.9925 19.8282 17.5935 20.1563 17.267 20.5572C16.9405 20.9582 16.6503 21.4684 16.469 22.0516C16.2876 22.6348 16.1425 23.4002 16.0699 24.4573C15.9974 25.4778 15.9248 26.8265 15.8523 28.5031L15.7435 33.1686C14.764 33.1686 14.0022 33.1686 13.3856 33.1686C12.7689 33.1686 11.9346 33.1686 10.9188 33.2051C10.9914 32.3303 11.1002 30.5807 11.2453 27.9199C11.3904 25.2592 11.463 23.4367 11.463 22.5255C11.463 22.0152 11.4267 21.6142 11.3542 21.2862C11.2816 20.9582 11.1002 20.6301 10.8826 20.3021C10.6286 20.0105 10.3747 19.7553 10.0482 19.6095C9.72177 19.4637 9.35901 19.3908 8.92371 19.3908C8.12566 19.3908 7.4727 19.646 6.85602 20.1563C6.27562 20.6666 5.84031 21.3591 5.55011 22.2339C5.25991 23.1087 5.07853 24.7853 4.96971 27.2639C4.86088 29.7424 4.78833 31.7471 4.78833 33.2051C3.73635 33.1686 2.97457 33.1686 2.46672 33.1686C1.85004 33.1686 1.05198 33.1686 0 33.2051Z" fill="#606161"/>
</svg>
